<svg version="1.1" viewBox="0.0 0.0 377.0 371.0" fill="none" stroke="none" stroke-linecap="square" stroke-miterlimit="10" width="377" height="371" xmlns:xlink="http://www.w3.org/1999/xlink" xmlns="http://www.w3.org/2000/svg"><path fill="#ffffff" d="M0 0L377.0 0L377.0 371.0L0 371.0L0 0Z" fill-rule="nonzero"/><path fill="#ffffff" d="M188.5 18.55C248.1455 18.55 303.2602 50.37049 333.08295 102.025C362.9057 153.6795 362.9057 217.3205 333.08295 268.975L188.5 185.5Z" fill-rule="nonzero"/><path fill="#00ff00" d="M43.917057 268.975C14.094314 217.3205 14.094314 153.6795 43.917057 102.025C73.73981 50.37049 128.8545 18.55 188.5 18.55L188.5 185.5Z" fill-rule="nonzero"/><path fill="#ffffff" d="M333.08295 268.975C303.2602 320.62952 248.1455 352.45 188.5 352.45C128.8545 352.45 73.73981 320.62952 43.917057 268.975L188.5 185.5Z" fill-rule="nonzero"/><path stroke="#000000" stroke-width="1.0" stroke-linejoin="round" stroke-linecap="round" d="M188.5 185.5L188.5 18.55C248.1455 18.55 303.2602 50.37049 333.08295 102.025C362.9057 153.6795 362.9057 217.3205 333.08295 268.975" fill-rule="nonzero"/><path stroke="#000000" stroke-width="1.0" stroke-linejoin="round" stroke-linecap="round" d="M188.5 185.5L333.08295 268.975C303.2602 320.62952 248.1455 352.45 188.5 352.45C128.8545 352.45 73.73981 320.62952 43.917057 268.975" fill-rule="nonzero"/><path stroke="#000000" stroke-width="1.0" stroke-linejoin="round" stroke-linecap="round" d="M188.5 185.5L43.917057 268.975C14.094314 217.3205 14.094314 153.6795 43.917057 102.025C73.73981 50.37049 128.8545 18.55 188.5 18.55" fill-rule="nonzero"/></svg>