<svg version="1.1" viewBox="0.0 0.0 600.0 371.0" fill="none" stroke="none" stroke-linecap="square" stroke-miterlimit="10" width="600" height="371" xmlns:xlink="http://www.w3.org/1999/xlink" xmlns="http://www.w3.org/2000/svg"><path fill="#ffffff" d="M0 0L600.0 0L600.0 371.0L0 371.0L0 0Z" fill-rule="nonzero"/><path fill="#ffffff" d="M300.0 18.55C359.64548 18.55 414.7602 50.37049 444.58295 102.025C474.4057 153.6795 474.4057 217.3205 444.58295 268.975L300.0 185.5Z" fill-rule="nonzero"/><path fill="#ffffff" d="M155.41705 268.975C125.594315 217.3205 125.594315 153.6795 155.41705 102.025C185.2398 50.37049 240.3545 18.55 300.0 18.55L300.0 185.5Z" fill-rule="nonzero"/><path fill="#ffff00" d="M444.58295 268.975C414.7602 320.62952 359.64548 352.45 300.0 352.45C240.3545 352.45 185.2398 320.62952 155.41705 268.975L300.0 185.5Z" fill-rule="nonzero"/><path stroke="#000000" stroke-width="1.0" stroke-linejoin="round" stroke-linecap="round" d="M300.0 185.5L300.0 18.55C359.64548 18.55 414.7602 50.37049 444.58295 102.025C474.4057 153.6795 474.4057 217.3205 444.58295 268.975" fill-rule="nonzero"/><path stroke="#000000" stroke-width="1.0" stroke-linejoin="round" stroke-linecap="round" d="M300.0 185.5L444.58295 268.975C414.7602 320.62952 359.64548 352.45 300.0 352.45C240.3545 352.45 185.2398 320.62952 155.41705 268.975" fill-rule="nonzero"/><path stroke="#000000" stroke-width="1.0" stroke-linejoin="round" stroke-linecap="round" d="M300.0 185.5L155.41705 268.975C125.594315 217.3205 125.594315 153.6795 155.41705 102.025C185.2398 50.37049 240.3545 18.55 300.0 18.55" fill-rule="nonzero"/></svg>